# xmcd CD database file generated by Grip 2.98.6
# 
# Track frame offsets:
#       183
#       6828
#       23948
#       38283
#       60423
#       92098
#       108460
#       123670
#       146148
#       170060
#       186835
#       210085
#       231310
# 
# Disc length: 3218 secs
# 
# Revision: 2
# Processed by: cddbd v1.4PL0 Copyright (c) Steve Scherf et al.
# Submitted via: Grip 2.98.6
# 
DISCID=ab0c900d
DTITLE=James Cotton - Living The Blues - James Cotton - Living The Blues
DYEAR=1900
DGENRE=Blues
TTITLE0=Mississippi Freight Train
TTITLE1=You Didn't Think About It
TTITLE2=Pacific Blues
TTITLE3=Take A Message
TTITLE4=Hungry Country Girl
TTITLE5=Hucklebuck
TTITLE6=One Little Piece Of Shade
TTITLE7=Living The Blues
TTITLE8=Black Knights
TTITLE9=Mississippi Saxophone
TTITLE10=Cotton In The Kitchen
TTITLE11=Certified
TTITLE12=Mississippi Freight Train - Part 2
EXTD=
EXTT0=
EXTT1=
EXTT2=
EXTT3=
EXTT4=
EXTT5=
EXTT6=
EXTT7=
EXTT8=
EXTT9=
EXTT10=
EXTT11=
EXTT12=
PLAYORDER=
